<mxfile host="app.diagrams.net" modified="2021-01-27T20:08:21.496Z" agent="5.0 (Windows NT 10.0; Win64; x64) AppleWebKit/537.36 (KHTML, like Gecko) Chrome/88.0.4324.104 Safari/537.36" etag="kI9ksNaRgU96FJUNyJGX" version="13.9.9" type="github">
  <diagram id="BDA7v9wnTE2G7iOWKpPn" name="Page-1">
    <mxGraphModel dx="687" dy="257" grid="1" gridSize="10" guides="1" tooltips="1" connect="1" arrows="1" fold="1" page="1" pageScale="1" pageWidth="850" pageHeight="1100" math="0" shadow="0">
      <root>
        <mxCell id="0" />
        <mxCell id="1" parent="0" />
        <mxCell id="KbTarNRCLpPFlz5eziaB-1" value="veiculo_vencimentos" style="shape=table;startSize=30;container=1;collapsible=1;childLayout=tableLayout;fixedRows=1;rowLines=0;fontStyle=1;align=center;resizeLast=1;" vertex="1" parent="1">
          <mxGeometry x="570" y="160" width="230" height="180" as="geometry" />
        </mxCell>
        <mxCell id="KbTarNRCLpPFlz5eziaB-2" value="" style="shape=partialRectangle;collapsible=0;dropTarget=0;pointerEvents=0;fillColor=none;top=0;left=0;bottom=1;right=0;points=[[0,0.5],[1,0.5]];portConstraint=eastwest;" vertex="1" parent="KbTarNRCLpPFlz5eziaB-1">
          <mxGeometry y="30" width="230" height="30" as="geometry" />
        </mxCell>
        <mxCell id="KbTarNRCLpPFlz5eziaB-3" value="PK" style="shape=partialRectangle;connectable=0;top=0;left=0;bottom=0;right=0;fontStyle=1;overflow=hidden;" vertex="1" parent="KbTarNRCLpPFlz5eziaB-2">
          <mxGeometry width="30" height="30" as="geometry" />
        </mxCell>
        <mxCell id="KbTarNRCLpPFlz5eziaB-4" value="ID (int unsigned)" style="shape=partialRectangle;connectable=0;top=0;left=0;bottom=0;right=0;align=left;spacingLeft=6;fontStyle=5;overflow=hidden;labelBorderColor=none;perimeterSpacing=0;" vertex="1" parent="KbTarNRCLpPFlz5eziaB-2">
          <mxGeometry x="30" width="200" height="30" as="geometry" />
        </mxCell>
        <mxCell id="KbTarNRCLpPFlz5eziaB-8" value="" style="shape=partialRectangle;collapsible=0;dropTarget=0;pointerEvents=0;fillColor=none;top=0;left=0;bottom=0;right=0;points=[[0,0.5],[1,0.5]];portConstraint=eastwest;" vertex="1" parent="KbTarNRCLpPFlz5eziaB-1">
          <mxGeometry y="60" width="230" height="30" as="geometry" />
        </mxCell>
        <mxCell id="KbTarNRCLpPFlz5eziaB-9" value="" style="shape=partialRectangle;connectable=0;fillColor=none;top=0;left=0;bottom=0;right=0;editable=1;overflow=hidden;" vertex="1" parent="KbTarNRCLpPFlz5eziaB-8">
          <mxGeometry width="30" height="30" as="geometry" />
        </mxCell>
        <mxCell id="KbTarNRCLpPFlz5eziaB-10" value="final_placa (varchar 255)" style="shape=partialRectangle;connectable=0;top=0;left=0;bottom=0;right=0;align=left;spacingLeft=6;overflow=hidden;labelBackgroundColor=none;labelBorderColor=none;" vertex="1" parent="KbTarNRCLpPFlz5eziaB-8">
          <mxGeometry x="30" width="200" height="30" as="geometry" />
        </mxCell>
        <mxCell id="KbTarNRCLpPFlz5eziaB-11" value="" style="shape=partialRectangle;collapsible=0;dropTarget=0;pointerEvents=0;fillColor=none;top=0;left=0;bottom=0;right=0;points=[[0,0.5],[1,0.5]];portConstraint=eastwest;" vertex="1" parent="KbTarNRCLpPFlz5eziaB-1">
          <mxGeometry y="90" width="230" height="30" as="geometry" />
        </mxCell>
        <mxCell id="KbTarNRCLpPFlz5eziaB-12" value="" style="shape=partialRectangle;connectable=0;fillColor=none;top=0;left=0;bottom=0;right=0;editable=1;overflow=hidden;" vertex="1" parent="KbTarNRCLpPFlz5eziaB-11">
          <mxGeometry width="30" height="30" as="geometry" />
        </mxCell>
        <mxCell id="KbTarNRCLpPFlz5eziaB-13" value="data_vencimento (date)" style="shape=partialRectangle;connectable=0;top=0;left=0;bottom=0;right=0;align=left;spacingLeft=6;overflow=hidden;labelBackgroundColor=none;" vertex="1" parent="KbTarNRCLpPFlz5eziaB-11">
          <mxGeometry x="30" width="200" height="30" as="geometry" />
        </mxCell>
        <mxCell id="KbTarNRCLpPFlz5eziaB-5" value="" style="shape=partialRectangle;collapsible=0;dropTarget=0;pointerEvents=0;fillColor=none;top=0;left=0;bottom=0;right=0;points=[[0,0.5],[1,0.5]];portConstraint=eastwest;" vertex="1" parent="KbTarNRCLpPFlz5eziaB-1">
          <mxGeometry y="120" width="230" height="30" as="geometry" />
        </mxCell>
        <mxCell id="KbTarNRCLpPFlz5eziaB-6" value="" style="shape=partialRectangle;connectable=0;fillColor=none;top=0;left=0;bottom=0;right=0;editable=1;overflow=hidden;" vertex="1" parent="KbTarNRCLpPFlz5eziaB-5">
          <mxGeometry width="30" height="30" as="geometry" />
        </mxCell>
        <mxCell id="KbTarNRCLpPFlz5eziaB-7" value="" style="shape=partialRectangle;connectable=0;fillColor=none;top=0;left=0;bottom=0;right=0;align=left;spacingLeft=6;overflow=hidden;" vertex="1" parent="KbTarNRCLpPFlz5eziaB-5">
          <mxGeometry x="30" width="200" height="30" as="geometry" />
        </mxCell>
        <mxCell id="KbTarNRCLpPFlz5eziaB-14" value="estado_id (int unsigned)" style="shape=partialRectangle;connectable=0;top=0;left=0;bottom=0;right=0;align=left;spacingLeft=6;overflow=hidden;labelBackgroundColor=none;" vertex="1" parent="1">
          <mxGeometry x="600" y="280" width="200" height="30" as="geometry" />
        </mxCell>
        <mxCell id="KbTarNRCLpPFlz5eziaB-15" value="FK" style="shape=partialRectangle;connectable=0;top=0;left=0;bottom=0;right=0;fontStyle=1;overflow=hidden;" vertex="1" parent="1">
          <mxGeometry x="570" y="280" width="30" height="30" as="geometry" />
        </mxCell>
        <mxCell id="KbTarNRCLpPFlz5eziaB-16" value="estados" style="shape=table;startSize=30;container=1;collapsible=1;childLayout=tableLayout;fixedRows=1;rowLines=0;fontStyle=1;align=center;resizeLast=1;" vertex="1" parent="1">
          <mxGeometry x="270" y="170" width="180" height="150" as="geometry" />
        </mxCell>
        <mxCell id="KbTarNRCLpPFlz5eziaB-17" value="" style="shape=partialRectangle;collapsible=0;dropTarget=0;pointerEvents=0;fillColor=none;top=0;left=0;bottom=1;right=0;points=[[0,0.5],[1,0.5]];portConstraint=eastwest;" vertex="1" parent="KbTarNRCLpPFlz5eziaB-16">
          <mxGeometry y="30" width="180" height="30" as="geometry" />
        </mxCell>
        <mxCell id="KbTarNRCLpPFlz5eziaB-18" value="PK" style="shape=partialRectangle;connectable=0;top=0;left=0;bottom=0;right=0;fontStyle=1;overflow=hidden;" vertex="1" parent="KbTarNRCLpPFlz5eziaB-17">
          <mxGeometry width="30" height="30" as="geometry" />
        </mxCell>
        <mxCell id="KbTarNRCLpPFlz5eziaB-19" value="ID (int unsigned)" style="shape=partialRectangle;connectable=0;top=0;left=0;bottom=0;right=0;align=left;spacingLeft=6;fontStyle=5;overflow=hidden;labelBorderColor=none;perimeterSpacing=0;" vertex="1" parent="KbTarNRCLpPFlz5eziaB-17">
          <mxGeometry x="30" width="150" height="30" as="geometry" />
        </mxCell>
        <mxCell id="KbTarNRCLpPFlz5eziaB-20" value="" style="shape=partialRectangle;collapsible=0;dropTarget=0;pointerEvents=0;fillColor=none;top=0;left=0;bottom=0;right=0;points=[[0,0.5],[1,0.5]];portConstraint=eastwest;" vertex="1" parent="KbTarNRCLpPFlz5eziaB-16">
          <mxGeometry y="60" width="180" height="30" as="geometry" />
        </mxCell>
        <mxCell id="KbTarNRCLpPFlz5eziaB-21" value="" style="shape=partialRectangle;connectable=0;fillColor=none;top=0;left=0;bottom=0;right=0;editable=1;overflow=hidden;" vertex="1" parent="KbTarNRCLpPFlz5eziaB-20">
          <mxGeometry width="30" height="30" as="geometry" />
        </mxCell>
        <mxCell id="KbTarNRCLpPFlz5eziaB-22" value="nome" style="shape=partialRectangle;connectable=0;top=0;left=0;bottom=0;right=0;align=left;spacingLeft=6;overflow=hidden;labelBackgroundColor=none;labelBorderColor=none;" vertex="1" parent="KbTarNRCLpPFlz5eziaB-20">
          <mxGeometry x="30" width="150" height="30" as="geometry" />
        </mxCell>
        <mxCell id="KbTarNRCLpPFlz5eziaB-23" value="" style="shape=partialRectangle;collapsible=0;dropTarget=0;pointerEvents=0;fillColor=none;top=0;left=0;bottom=0;right=0;points=[[0,0.5],[1,0.5]];portConstraint=eastwest;" vertex="1" parent="KbTarNRCLpPFlz5eziaB-16">
          <mxGeometry y="90" width="180" height="30" as="geometry" />
        </mxCell>
        <mxCell id="KbTarNRCLpPFlz5eziaB-24" value="" style="shape=partialRectangle;connectable=0;fillColor=none;top=0;left=0;bottom=0;right=0;editable=1;overflow=hidden;" vertex="1" parent="KbTarNRCLpPFlz5eziaB-23">
          <mxGeometry width="30" height="30" as="geometry" />
        </mxCell>
        <mxCell id="KbTarNRCLpPFlz5eziaB-25" value="sigla" style="shape=partialRectangle;connectable=0;top=0;left=0;bottom=0;right=0;align=left;spacingLeft=6;overflow=hidden;labelBackgroundColor=none;" vertex="1" parent="KbTarNRCLpPFlz5eziaB-23">
          <mxGeometry x="30" width="150" height="30" as="geometry" />
        </mxCell>
        <mxCell id="KbTarNRCLpPFlz5eziaB-26" value="" style="shape=partialRectangle;collapsible=0;dropTarget=0;pointerEvents=0;fillColor=none;top=0;left=0;bottom=0;right=0;points=[[0,0.5],[1,0.5]];portConstraint=eastwest;" vertex="1" parent="KbTarNRCLpPFlz5eziaB-16">
          <mxGeometry y="120" width="180" height="30" as="geometry" />
        </mxCell>
        <mxCell id="KbTarNRCLpPFlz5eziaB-27" value="" style="shape=partialRectangle;connectable=0;fillColor=none;top=0;left=0;bottom=0;right=0;editable=1;overflow=hidden;" vertex="1" parent="KbTarNRCLpPFlz5eziaB-26">
          <mxGeometry width="30" height="30" as="geometry" />
        </mxCell>
        <mxCell id="KbTarNRCLpPFlz5eziaB-28" value="" style="shape=partialRectangle;connectable=0;fillColor=none;top=0;left=0;bottom=0;right=0;align=left;spacingLeft=6;overflow=hidden;" vertex="1" parent="KbTarNRCLpPFlz5eziaB-26">
          <mxGeometry x="30" width="150" height="30" as="geometry" />
        </mxCell>
        <mxCell id="KbTarNRCLpPFlz5eziaB-31" style="edgeStyle=orthogonalEdgeStyle;rounded=0;orthogonalLoop=1;jettySize=auto;html=1;entryX=0;entryY=0.5;entryDx=0;entryDy=0;" edge="1" parent="1" source="KbTarNRCLpPFlz5eziaB-17" target="KbTarNRCLpPFlz5eziaB-5">
          <mxGeometry relative="1" as="geometry" />
        </mxCell>
        <mxCell id="KbTarNRCLpPFlz5eziaB-32" value="tipo (enum)[&#39;ipva&#39;, &#39;licenciamento&#39;]" style="shape=partialRectangle;connectable=0;top=0;left=0;bottom=0;right=0;align=left;spacingLeft=6;overflow=hidden;labelBackgroundColor=none;" vertex="1" parent="1">
          <mxGeometry x="600" y="310" width="200" height="30" as="geometry" />
        </mxCell>
      </root>
    </mxGraphModel>
  </diagram>
</mxfile>
